<svg xmlns="http://www.w3.org/2000/svg" xmlns:xlink="http://www.w3.org/1999/xlink" version="1.1" x="0px" y="0px" viewBox="0 0 100 125" enable-background="new 0 0 100 100" xml:space="preserve"><path fill="#27272A" d="M23,26h29c1.657,0,3-1.343,3-3s-1.343-3-3-3H23c-4.962,0-9,4.038-9,9v48c0,4.962,4.038,9,9,9h48c4.962,0,9-4.038,9-9V48  c0-1.657-1.343-3-3-3s-3,1.343-3,3v29c0,1.654-1.346,3-3,3H23c-1.654,0-3-1.346-3-3V29C20,27.346,21.346,26,23,26z"/><path d="M86.645,9.843C85.456,8.655,83.871,8,82.183,8s-3.272,0.655-4.463,1.844L47,40.565V53h12.434l30.719-30.72  C91.344,21.091,92,19.506,92,17.816c0-1.689-0.656-3.274-1.845-4.461L86.645,9.843z M85.912,18.036L56.949,47H53v-3.949  l28.962-28.963c0.145-0.145,0.298-0.143,0.44-0.001l3.511,3.513C85.985,17.67,86,17.757,86,17.817  C86,17.876,85.985,17.963,85.912,18.036z"/></svg>