<svg id="Goose--Streamline-Openmoji" viewBox="0 0 32 32" xmlns="http://www.w3.org/2000/svg" height="32" width="32">
  <desc>
    Goose Streamline Emoji: https://streamlinehq.com
  </desc>
  <g id="color">
    <path fill="#ffffff" d="M21.441466666666663 16.788355555555555c-3.374711111111111 -2.249822222222222 -6.856577777777778 -2.196222222222222 -7.713644444444443 -2.892622222222222 -0.5892444444444445 -0.48204444444444444 -0.9106666666666666 -5.088844444444444 0.05355555555555555 -8.088577777777777C15.334844444444443 0.9861333333333332 12.013688888888888 0.0755111111111111 10.1388 1.361111111111111l-2.5176 1.6070222222222221c-1.6070222222222221 1.6070222222222221 -3.374711111111111 1.6070222222222221 -2.7854666666666663 2.196222222222222 0.5356444444444445 0.5356888888888889 3.7496888888888886 0.10715555555555556 4.4460444444444445 0.8571111111111112 1.3392 1.446311111111111 -0.7499111111111111 8.57071111111111 -1.071288888888889 11.302622222222222 -0.48208888888888884 3.535422222222222 -0.053599999999999995 5.035288888888888 3.374711111111111 6.9101333333333335 0.9642222222222223 0.5356444444444445 2.4640444444444443 0.9106666666666666 3.696133333333333 1.1784444444444444v2.4640444444444443H10.40671111111111l1.2320444444444443 1.6070222222222221h1.2320444444444443l1.2319999999999998 1.6070666666666664h2.4640444444444443l1.178488888888889 -1.6070666666666664v-3.642533333333333l2.6247555555555557 0.37493333333333334c3.910355555555555 0.48208888888888884 6.749422222222222 0.05355555555555555 6.749422222222222 0.05355555555555555s-1.2855999999999999 -6.535155555555555 -5.678133333333333 -9.481333333333332Z" stroke-width="0.4444"></path>
    <path id="foot" fill="#e27022" stroke="#e27022" stroke-linecap="round" stroke-linejoin="round" stroke-width="0.8542" d="M15.334844444444443 27.93031111111111H10.51382222222222l1.2319999999999998 1.6070222222222221h2.4640888888888886l1.1249333333333331 -1.6070222222222221Z"></path>
    <path id="foot_fill" fill="#f4aa41" stroke="#f4aa41" stroke-linecap="round" stroke-linejoin="round" stroke-width="0.8542" d="M17.798888888888886 29.537333333333333H12.924311111111109l1.2319999999999998 1.6069333333333333h2.4641333333333333l1.1784444444444444 -1.6069333333333333Z"></path>
    <path id="beak" fill="#f4aa41" stroke="#f4aa41" stroke-linecap="round" stroke-linejoin="round" stroke-width="0.8542" d="M9.388888888888888 6.075022222222222c-0.6963999999999999 -0.8035111111111111 -3.9104 -0.32142222222222216 -4.446088888888888 -0.8570666666666665 -0.5892444444444445 -0.5892444444444445 1.1784444444444444 -0.5892444444444445 2.7854666666666663 -2.196266666666667 1.0713333333333332 -1.0713333333333332 1.8748444444444443 -0.32142222222222216 1.8748444444444443 0.9642222222222223l-0.21431111111111112 2.089111111111111Z"></path>
  </g>
  <g id="line">
    <path id="body_back" fill="none" stroke="#000000" stroke-linecap="round" stroke-linejoin="round" stroke-width="0.8542" d="M9.5496 3.9859111111111107c0.05355555555555555 -1.2855999999999999 -0.8035111111111111 -2.0355555555555553 -1.8748444444444443 -0.9642222222222223 -1.6070222222222221 1.6070222222222221 -3.374711111111111 1.6070222222222221 -2.7854666666666663 2.196266666666667 0.5356444444444445 0.5356444444444445 3.7496888888888886 0.1071111111111111 4.4460444444444445 0.8570666666666665 1.3392 1.446311111111111 -0.7499111111111111 8.57071111111111 -1.071288888888889 11.302622222222222 -0.48208888888888884 3.535422222222222 -0.05355555555555555 5.035333333333333 3.374711111111111 6.9101333333333335 1.9284 1.0713333333333332 6.160177777777777 1.6070222222222221 6.160177777777777 1.6070222222222221v3.6425777777777775"></path>
    <path id="body_front" fill="none" stroke="#000000" stroke-linecap="round" stroke-linejoin="round" stroke-width="0.8542" d="M10.245955555555556 1.4146666666666665c1.8212444444444444 -1.3391555555555554 5.142444444444444 -0.42853333333333327 3.6425777777777775 4.446088888888888 -0.9642222222222223 2.999733333333333 -0.6427999999999999 7.606488888888888 -0.053599999999999995 8.088577777777777 0.8571111111111112 0.6963555555555555 4.285377777777777 0.5892000000000001 7.713644444444443 2.892622222222222C25.94111111111111 19.78813333333333 27.226666666666663 26.376844444444444 27.226666666666663 26.376844444444444s-2.8390222222222223 0.42848888888888886 -6.749377777777777 -0.053599999999999995"></path>
    <path id="wing" fill="none" stroke="#000000" stroke-linecap="round" stroke-miterlimit="10" stroke-width="0.8542" d="M12.817155555555555 18.448977777777774c1.2855999999999999 4.392488888888889 7.017244444444444 5.196 7.017244444444444 5.196"></path>
    <path id="foot_outline_back" fill="none" stroke="#000000" stroke-linecap="round" stroke-linejoin="round" stroke-width="0.8542" d="M14.209866666666667 29.537333333333333h-2.4640444444444443l-1.2319999999999998 -1.6070222222222221h4.821022222222222V25.46622222222222"></path>
    <path id="foot_outline_front" fill="none" stroke="#000000" stroke-linecap="round" stroke-linejoin="round" stroke-width="0.8542" d="M17.798888888888886 29.537333333333333H12.924311111111109l1.2319999999999998 1.6069333333333333h2.4641333333333333"></path>
  </g>
</svg>