<svg xmlns="http://www.w3.org/2000/svg" version="1.1" viewBox="-5.0 -10.0 110.0 135.0">
 <path fill="#27272A" d="m74.266 44.52c-1.6016-5.5625-2.418-11.324-2.4219-17.113l-0.003906-3.0977c0.066406-4.4297-1.5664-8.7148-4.5664-11.977-3.8125-4.0352-9.625-6.082-17.273-6.082s-13.461 2.0469-17.273 6.082c-2.9805 3.2383-4.6133 7.4883-4.5703 11.887v3.1875c0.003906 5.7969-0.8125 11.562-2.4258 17.133-4.3672 15.836 5.5703 22.848 9.1562 24.805l-1 6.5234h-0.003907c-0.65625 4.3828 0.63281 8.8359 3.5352 12.184 3.1797 3.625 7.7656 5.6992 12.586 5.6992 4.8203 0 9.4062-2.0742 12.586-5.6992 2.9023-3.3477 4.1914-7.8008 3.5352-12.184l-1-6.5273c3.5898-1.9648 13.512-8.9805 9.1406-24.82zm-14.047 41.496c-2.5703 2.9531-6.3008 4.6367-10.215 4.6094-3.9141 0.027344-7.6484-1.6562-10.215-4.6094-2.3281-2.6484-3.3594-6.1914-2.8164-9.6758l6.0156-39.227c4.3711 2.3945 9.668 2.3789 14.027-0.042969l6.0195 39.27c0.54297 3.4844-0.49219 7.0273-2.8164 9.6758zm4.3945-20.004-4.543-29.621c-0.14844-0.94531-0.75391-1.7578-1.6172-2.1719-0.89453-0.43359-1.9453-0.40234-2.8125 0.085938-3.5 1.9609-7.7734 1.9609-11.273 0-0.86719-0.48828-1.918-0.51953-2.8164-0.085938-0.86328 0.41406-1.4648 1.2266-1.6133 2.1719l-4.543 29.629c-3.4766-2.2227-10.074-8.2461-6.6562-20.629h-0.003906c1.6953-5.8477 2.5508-11.898 2.5469-17.984l-0.003906-3.2734v0.003907c0-3.5859 1.3398-7.0391 3.75-9.6914 3.2031-3.3633 8.2383-5.0703 14.973-5.0703s11.77 1.707 14.973 5.0703c2.4297 2.6758 3.7656 6.1602 3.7461 9.7734v3.1875c0.003906 6.0781 0.85938 12.121 2.543 17.961 3.4141 12.395-3.1719 18.418-6.6484 20.648z"/>
 <path fill="#27272A" d="m47.449 44.535c-0.35547-0.21484-0.78125-0.27734-1.1836-0.17578s-0.74609 0.35547-0.96094 0.71094l-1.168 1.9492c-0.21094 0.35547-0.27734 0.78125-0.17578 1.1836 0.10156 0.40625 0.35547 0.75 0.71484 0.96484 0.35547 0.21094 0.78125 0.27344 1.1836 0.17188 0.40234-0.10156 0.74609-0.35938 0.96094-0.71484l1.168-1.9492c0.21094-0.35547 0.27344-0.78125 0.17188-1.1836-0.097656-0.39844-0.35547-0.74609-0.71094-0.95703z"/>
 <path fill="#27272A" d="m54.703 45.07c-0.44531-0.73828-1.4023-0.97656-2.1406-0.53516-0.74219 0.44531-0.98438 1.4023-0.54297 2.1406l1.1641 1.9492h0.003906c0.44141 0.73828 1.4023 0.97656 2.1406 0.53516s0.98047-1.3984 0.53906-2.1406z"/>
 <path fill="#27272A" d="m36.422 25.938c-1.2031 0.003906-2.2891 0.73047-2.7461 1.8438s-0.19922 2.3945 0.65625 3.2422c0.85156 0.85156 2.1328 1.1016 3.2422 0.63672 1.1133-0.46094 1.8359-1.5508 1.832-2.7539 0-0.78906-0.31641-1.5469-0.875-2.1055-0.55859-0.55859-1.3203-0.86719-2.1094-0.86328z"/>
 <path fill="#27272A" d="m63.578 25.938c-1.207-0.003906-2.293 0.72266-2.7578 1.832-0.46094 1.1133-0.20703 2.3984 0.64453 3.25 0.85156 0.85156 2.1367 1.1055 3.25 0.64453 1.1094-0.46484 1.8359-1.5508 1.832-2.7578-0.007813-1.6367-1.332-2.9609-2.9688-2.9688z"/>
</svg>