<svg xmlns="http://www.w3.org/2000/svg" version="1.1" viewBox="-5.0 -10.0 110.0 135.0">
 <path fill="#27272A" d="m20.832 25c-2.3008 0-4.1641 1.8672-4.1641 4.168s1.8633 4.1641 4.1641 4.1641 4.168-1.8633 4.168-4.1641-1.8672-4.168-4.168-4.168zm16.668 0c-2.3008 0-4.168 1.8672-4.168 4.168s1.8672 4.1641 4.168 4.1641h50c2.3008 0 4.168-1.8633 4.168-4.1641s-1.8672-4.168-4.168-4.168zm-20.832 25c0-2.3008 1.8633-4.168 4.1641-4.168s4.168 1.8672 4.168 4.168-1.8672 4.168-4.168 4.168-4.1641-1.8672-4.1641-4.168zm4.1641 16.668c-2.3008 0-4.1641 1.8633-4.1641 4.1641s1.8633 4.168 4.1641 4.168 4.168-1.8672 4.168-4.168-1.8672-4.1641-4.168-4.1641zm12.5-16.668c0-2.3008 1.8672-4.168 4.168-4.168h50c2.3008 0 4.168 1.8672 4.168 4.168s-1.8672 4.168-4.168 4.168h-50c-2.3008 0-4.168-1.8672-4.168-4.168zm4.168 16.668c-2.3008 0-4.168 1.8633-4.168 4.1641s1.8672 4.168 4.168 4.168h50c2.3008 0 4.168-1.8672 4.168-4.168s-1.8672-4.1641-4.168-4.1641z" fill-rule="evenodd"/></svg>